# xmcd CD database file
#
# Track frame offsets:
#	150
#	20378
#	37842
#	59815
#	79077
#	95420
#	110028
#	133646
#	157702
#	182360
#	201222
#	217224
#	228563
#	244058
#	254885
#	273412
#	293955
#
# Disc length: 4309 seconds
#
# Revision: 1
# Processed by: cddbd v1.5.2PL0 Copyright (c) Steve Scherf et al.
# Submitted via: CDex 1.70beta2
#
DISCID=fa10d311
DTITLE=Various Artist - Salsa Picante Vol. 1 [CD 1)
DYEAR=2005
DGENRE=Salsa
TTITLE0=Elvis Crespo - Suavemente (Album Version)
TTITLE1=Ibrahim Ferrer - La Chica Del Ganizado
TTITLE2=Aramis Galindo - Qué Sabrás Del Amor
TTITLE3=Papaluca - Si No Te Mueve Te Mueve
TTITLE4=Danza Latina - Hot Hot Hot
TTITLE5=Gran Afro Cuban Orchestra De Generoso Jimenez - Vengo Con Sed
TTITLE6=Fiebre Latina - Te Pareces Tanto A El
TTITLE7=Vallejo - Santiago Y La Habana
TTITLE8=Son Candela - Pegate A Home
TTITLE9=David Alvarez Y Juego De Manos - Juana La Loca
TTITLE10=Havana Mambo - Biyi Biyió
TTITLE11=Rita Alonso - Tiburon En El Malecon
TTITLE12=Cosmo De La Fuente - Maria Isabel (Mambo Version)
TTITLE13=Omara Portuondo and Teresa Garcia - Quizas, Quizas - El Niche
TTITLE14=Doris Lavin - Mi Son Caliente
TTITLE15=Rio Combo - Brazil (Aquerela Do Brazil)
TTITLE16=Papi Oviedo and Sus Soneros - Chan Chan
EXTD=YEAR: 2005
EXTT0=
EXTT1=
EXTT2=
EXTT3=
EXTT4=
EXTT5=
EXTT6=
EXTT7=
EXTT8=
EXTT9=
EXTT10=
EXTT11=
EXTT12=
EXTT13=
EXTT14=
EXTT15=
EXTT16=
PLAYORDER=
